<svg xmlns="http://www.w3.org/2000/svg" xmlns:xlink="http://www.w3.org/1999/xlink" width="150" zoomAndPan="magnify" viewBox="0 0 112.5 37.5" height="50" preserveAspectRatio="xMidYMid meet" version="1.0"><defs><g/><clipPath id="c40cccf4e4"><path d="M 99 14 L 111.511719 14 L 111.511719 28 L 99 28 Z M 99 14 " clip-rule="nonzero"/></clipPath></defs><g fill="#ffffff" fill-opacity="1"><g transform="translate(0.493421, 26.950372)"><g><path d="M 7.125 0.234375 C 6.007812 0.234375 5.015625 0.0976562 4.140625 -0.171875 C 3.273438 -0.453125 2.550781 -0.816406 1.96875 -1.265625 C 1.394531 -1.710938 0.957031 -2.203125 0.65625 -2.734375 L 2.390625 -4.875 L 2.671875 -4.875 C 3.160156 -4.15625 3.773438 -3.582031 4.515625 -3.15625 C 5.265625 -2.726562 6.132812 -2.515625 7.125 -2.515625 C 7.976562 -2.515625 8.617188 -2.691406 9.046875 -3.046875 C 9.484375 -3.410156 9.703125 -3.910156 9.703125 -4.546875 C 9.703125 -4.921875 9.628906 -5.238281 9.484375 -5.5 C 9.347656 -5.757812 9.117188 -5.976562 8.796875 -6.15625 C 8.472656 -6.34375 8.035156 -6.503906 7.484375 -6.640625 L 5.421875 -7.109375 C 3.972656 -7.441406 2.894531 -7.988281 2.1875 -8.75 C 1.488281 -9.519531 1.140625 -10.515625 1.140625 -11.734375 C 1.140625 -12.648438 1.363281 -13.453125 1.8125 -14.140625 C 2.269531 -14.828125 2.929688 -15.359375 3.796875 -15.734375 C 4.671875 -16.117188 5.710938 -16.3125 6.921875 -16.3125 C 8.160156 -16.3125 9.222656 -16.148438 10.109375 -15.828125 C 10.992188 -15.503906 11.738281 -15.003906 12.34375 -14.328125 L 10.765625 -12.171875 L 10.5 -12.171875 C 10.039062 -12.648438 9.515625 -13.003906 8.921875 -13.234375 C 8.335938 -13.472656 7.671875 -13.59375 6.921875 -13.59375 C 6.046875 -13.59375 5.378906 -13.4375 4.921875 -13.125 C 4.472656 -12.820312 4.25 -12.398438 4.25 -11.859375 C 4.25 -11.347656 4.40625 -10.941406 4.71875 -10.640625 C 5.039062 -10.347656 5.59375 -10.117188 6.375 -9.953125 L 8.5 -9.5 C 10.0625 -9.175781 11.191406 -8.617188 11.890625 -7.828125 C 12.597656 -7.035156 12.953125 -6.003906 12.953125 -4.734375 C 12.953125 -3.734375 12.734375 -2.859375 12.296875 -2.109375 C 11.867188 -1.367188 11.21875 -0.789062 10.34375 -0.375 C 9.46875 0.03125 8.394531 0.234375 7.125 0.234375 Z M 7.125 0.234375 "/></g></g></g><g fill="#ffffff" fill-opacity="1"><g transform="translate(14.30657, 26.950372)"><g><path d="M 4.734375 0.234375 C 3.953125 0.234375 3.273438 0.09375 2.703125 -0.1875 C 2.128906 -0.476562 1.6875 -0.898438 1.375 -1.453125 C 1.070312 -2.003906 0.921875 -2.671875 0.921875 -3.453125 C 0.921875 -4.171875 1.070312 -4.773438 1.375 -5.265625 C 1.6875 -5.753906 2.164062 -6.15625 2.8125 -6.46875 C 3.457031 -6.78125 4.300781 -7.019531 5.34375 -7.1875 C 6.070312 -7.300781 6.625 -7.425781 7 -7.5625 C 7.375 -7.707031 7.628906 -7.867188 7.765625 -8.046875 C 7.898438 -8.222656 7.96875 -8.445312 7.96875 -8.71875 C 7.96875 -9.101562 7.832031 -9.394531 7.5625 -9.59375 C 7.289062 -9.800781 6.835938 -9.90625 6.203125 -9.90625 C 5.523438 -9.90625 4.878906 -9.753906 4.265625 -9.453125 C 3.660156 -9.160156 3.140625 -8.765625 2.703125 -8.265625 L 2.46875 -8.265625 L 1.203125 -10.203125 C 1.816406 -10.878906 2.566406 -11.40625 3.453125 -11.78125 C 4.335938 -12.164062 5.304688 -12.359375 6.359375 -12.359375 C 7.960938 -12.359375 9.125 -12.015625 9.84375 -11.328125 C 10.5625 -10.648438 10.921875 -9.6875 10.921875 -8.4375 L 10.921875 -3.171875 C 10.921875 -2.628906 11.160156 -2.359375 11.640625 -2.359375 C 11.828125 -2.359375 12.003906 -2.390625 12.171875 -2.453125 L 12.328125 -2.40625 L 12.546875 -0.28125 C 12.378906 -0.175781 12.144531 -0.0859375 11.84375 -0.015625 C 11.539062 0.0546875 11.210938 0.09375 10.859375 0.09375 C 10.128906 0.09375 9.5625 -0.046875 9.15625 -0.328125 C 8.75 -0.609375 8.457031 -1.046875 8.28125 -1.640625 L 8.046875 -1.65625 C 7.453125 -0.394531 6.347656 0.234375 4.734375 0.234375 Z M 5.703125 -2.046875 C 6.398438 -2.046875 6.957031 -2.28125 7.375 -2.75 C 7.800781 -3.226562 8.015625 -3.890625 8.015625 -4.734375 L 8.015625 -5.96875 L 7.8125 -6 C 7.625 -5.851562 7.378906 -5.726562 7.078125 -5.625 C 6.785156 -5.53125 6.363281 -5.4375 5.8125 -5.34375 C 5.144531 -5.238281 4.664062 -5.050781 4.375 -4.78125 C 4.09375 -4.507812 3.953125 -4.128906 3.953125 -3.640625 C 3.953125 -3.117188 4.101562 -2.722656 4.40625 -2.453125 C 4.71875 -2.179688 5.148438 -2.046875 5.703125 -2.046875 Z M 5.703125 -2.046875 "/></g></g></g><g fill="#ffffff" fill-opacity="1"><g transform="translate(27.096934, 26.950372)"><g><path d="M 1.75 0 L 1.75 -12.140625 L 4.671875 -12.140625 L 4.671875 -10.5 L 4.90625 -10.46875 C 5.300781 -11.113281 5.765625 -11.585938 6.296875 -11.890625 C 6.828125 -12.203125 7.507812 -12.359375 8.34375 -12.359375 C 9.257812 -12.359375 9.992188 -12.175781 10.546875 -11.8125 C 11.109375 -11.457031 11.515625 -10.929688 11.765625 -10.234375 L 12 -10.234375 C 12.375 -10.960938 12.851562 -11.5 13.4375 -11.84375 C 14.03125 -12.1875 14.769531 -12.359375 15.65625 -12.359375 C 18.164062 -12.359375 19.421875 -10.957031 19.421875 -8.15625 L 19.421875 0 L 16.375 0 L 16.375 -7.78125 C 16.375 -8.488281 16.234375 -9 15.953125 -9.3125 C 15.679688 -9.632812 15.238281 -9.796875 14.625 -9.796875 C 12.945312 -9.796875 12.109375 -8.675781 12.109375 -6.4375 L 12.109375 0 L 9.0625 0 L 9.0625 -7.78125 C 9.0625 -8.488281 8.921875 -9 8.640625 -9.3125 C 8.359375 -9.632812 7.910156 -9.796875 7.296875 -9.796875 C 6.503906 -9.796875 5.890625 -9.53125 5.453125 -9 C 5.015625 -8.476562 4.796875 -7.644531 4.796875 -6.5 L 4.796875 0 Z M 1.75 0 "/></g></g></g><g fill="#ffffff" fill-opacity="1"><g transform="translate(48.080603, 26.950372)"><g><path d="M 4.734375 0.234375 C 3.953125 0.234375 3.273438 0.09375 2.703125 -0.1875 C 2.128906 -0.476562 1.6875 -0.898438 1.375 -1.453125 C 1.070312 -2.003906 0.921875 -2.671875 0.921875 -3.453125 C 0.921875 -4.171875 1.070312 -4.773438 1.375 -5.265625 C 1.6875 -5.753906 2.164062 -6.15625 2.8125 -6.46875 C 3.457031 -6.78125 4.300781 -7.019531 5.34375 -7.1875 C 6.070312 -7.300781 6.625 -7.425781 7 -7.5625 C 7.375 -7.707031 7.628906 -7.867188 7.765625 -8.046875 C 7.898438 -8.222656 7.96875 -8.445312 7.96875 -8.71875 C 7.96875 -9.101562 7.832031 -9.394531 7.5625 -9.59375 C 7.289062 -9.800781 6.835938 -9.90625 6.203125 -9.90625 C 5.523438 -9.90625 4.878906 -9.753906 4.265625 -9.453125 C 3.660156 -9.160156 3.140625 -8.765625 2.703125 -8.265625 L 2.46875 -8.265625 L 1.203125 -10.203125 C 1.816406 -10.878906 2.566406 -11.40625 3.453125 -11.78125 C 4.335938 -12.164062 5.304688 -12.359375 6.359375 -12.359375 C 7.960938 -12.359375 9.125 -12.015625 9.84375 -11.328125 C 10.5625 -10.648438 10.921875 -9.6875 10.921875 -8.4375 L 10.921875 -3.171875 C 10.921875 -2.628906 11.160156 -2.359375 11.640625 -2.359375 C 11.828125 -2.359375 12.003906 -2.390625 12.171875 -2.453125 L 12.328125 -2.40625 L 12.546875 -0.28125 C 12.378906 -0.175781 12.144531 -0.0859375 11.84375 -0.015625 C 11.539062 0.0546875 11.210938 0.09375 10.859375 0.09375 C 10.128906 0.09375 9.5625 -0.046875 9.15625 -0.328125 C 8.75 -0.609375 8.457031 -1.046875 8.28125 -1.640625 L 8.046875 -1.65625 C 7.453125 -0.394531 6.347656 0.234375 4.734375 0.234375 Z M 5.703125 -2.046875 C 6.398438 -2.046875 6.957031 -2.28125 7.375 -2.75 C 7.800781 -3.226562 8.015625 -3.890625 8.015625 -4.734375 L 8.015625 -5.96875 L 7.8125 -6 C 7.625 -5.851562 7.378906 -5.726562 7.078125 -5.625 C 6.785156 -5.53125 6.363281 -5.4375 5.8125 -5.34375 C 5.144531 -5.238281 4.664062 -5.050781 4.375 -4.78125 C 4.09375 -4.507812 3.953125 -4.128906 3.953125 -3.640625 C 3.953125 -3.117188 4.101562 -2.722656 4.40625 -2.453125 C 4.71875 -2.179688 5.148438 -2.046875 5.703125 -2.046875 Z M 5.703125 -2.046875 "/></g></g></g><g fill="#ffffff" fill-opacity="1"><g transform="translate(60.870967, 26.950372)"><g><path d="M 1.75 0 L 1.75 -12.140625 L 4.671875 -12.140625 L 4.671875 -10.359375 L 4.90625 -10.296875 C 5.664062 -11.671875 6.890625 -12.359375 8.578125 -12.359375 C 9.984375 -12.359375 11.015625 -11.976562 11.671875 -11.21875 C 12.328125 -10.457031 12.65625 -9.347656 12.65625 -7.890625 L 12.65625 0 L 9.609375 0 L 9.609375 -7.515625 C 9.609375 -8.316406 9.445312 -8.894531 9.125 -9.25 C 8.800781 -9.613281 8.28125 -9.796875 7.5625 -9.796875 C 6.695312 -9.796875 6.019531 -9.507812 5.53125 -8.9375 C 5.039062 -8.375 4.796875 -7.488281 4.796875 -6.28125 L 4.796875 0 Z M 1.75 0 "/></g></g></g><g fill="#ffffff" fill-opacity="1"><g transform="translate(75.080035, 26.950372)"><g><path d="M 8.375 -2.890625 L 9.171875 -0.640625 C 8.835938 -0.367188 8.421875 -0.15625 7.921875 0 C 7.421875 0.15625 6.859375 0.234375 6.234375 0.234375 C 4.910156 0.234375 3.910156 -0.125 3.234375 -0.84375 C 2.554688 -1.5625 2.21875 -2.597656 2.21875 -3.953125 L 2.21875 -9.71875 L 0.359375 -9.71875 L 0.359375 -12.140625 L 2.21875 -12.140625 L 2.21875 -14.515625 L 5.265625 -15 L 5.265625 -12.140625 L 8.703125 -12.140625 L 8.703125 -9.71875 L 5.265625 -9.71875 L 5.265625 -4.1875 C 5.265625 -3.582031 5.382812 -3.140625 5.625 -2.859375 C 5.875 -2.585938 6.238281 -2.453125 6.71875 -2.453125 C 7.257812 -2.453125 7.734375 -2.597656 8.140625 -2.890625 Z M 8.375 -2.890625 "/></g></g></g><g fill="#ffffff" fill-opacity="1"><g transform="translate(84.505092, 26.950372)"><g><path d="M 1.75 0 L 1.75 -17.015625 L 4.796875 -17.015625 L 4.796875 -10.546875 L 5.03125 -10.5 C 5.4375 -11.09375 5.929688 -11.550781 6.515625 -11.875 C 7.097656 -12.195312 7.804688 -12.359375 8.640625 -12.359375 C 11.316406 -12.359375 12.65625 -10.84375 12.65625 -7.8125 L 12.65625 0 L 9.609375 0 L 9.609375 -7.421875 C 9.609375 -8.253906 9.441406 -8.859375 9.109375 -9.234375 C 8.773438 -9.609375 8.257812 -9.796875 7.5625 -9.796875 C 6.71875 -9.796875 6.046875 -9.507812 5.546875 -8.9375 C 5.046875 -8.375 4.796875 -7.488281 4.796875 -6.28125 L 4.796875 0 Z M 1.75 0 "/></g></g></g><g clip-path="url(#c40cccf4e4)"><g fill="#ffffff" fill-opacity="1"><g transform="translate(98.71416, 26.950372)"><g><path d="M 4.734375 0.234375 C 3.953125 0.234375 3.273438 0.09375 2.703125 -0.1875 C 2.128906 -0.476562 1.6875 -0.898438 1.375 -1.453125 C 1.070312 -2.003906 0.921875 -2.671875 0.921875 -3.453125 C 0.921875 -4.171875 1.070312 -4.773438 1.375 -5.265625 C 1.6875 -5.753906 2.164062 -6.15625 2.8125 -6.46875 C 3.457031 -6.78125 4.300781 -7.019531 5.34375 -7.1875 C 6.070312 -7.300781 6.625 -7.425781 7 -7.5625 C 7.375 -7.707031 7.628906 -7.867188 7.765625 -8.046875 C 7.898438 -8.222656 7.96875 -8.445312 7.96875 -8.71875 C 7.96875 -9.101562 7.832031 -9.394531 7.5625 -9.59375 C 7.289062 -9.800781 6.835938 -9.90625 6.203125 -9.90625 C 5.523438 -9.90625 4.878906 -9.753906 4.265625 -9.453125 C 3.660156 -9.160156 3.140625 -8.765625 2.703125 -8.265625 L 2.46875 -8.265625 L 1.203125 -10.203125 C 1.816406 -10.878906 2.566406 -11.40625 3.453125 -11.78125 C 4.335938 -12.164062 5.304688 -12.359375 6.359375 -12.359375 C 7.960938 -12.359375 9.125 -12.015625 9.84375 -11.328125 C 10.5625 -10.648438 10.921875 -9.6875 10.921875 -8.4375 L 10.921875 -3.171875 C 10.921875 -2.628906 11.160156 -2.359375 11.640625 -2.359375 C 11.828125 -2.359375 12.003906 -2.390625 12.171875 -2.453125 L 12.328125 -2.40625 L 12.546875 -0.28125 C 12.378906 -0.175781 12.144531 -0.0859375 11.84375 -0.015625 C 11.539062 0.0546875 11.210938 0.09375 10.859375 0.09375 C 10.128906 0.09375 9.5625 -0.046875 9.15625 -0.328125 C 8.75 -0.609375 8.457031 -1.046875 8.28125 -1.640625 L 8.046875 -1.65625 C 7.453125 -0.394531 6.347656 0.234375 4.734375 0.234375 Z M 5.703125 -2.046875 C 6.398438 -2.046875 6.957031 -2.28125 7.375 -2.75 C 7.800781 -3.226562 8.015625 -3.890625 8.015625 -4.734375 L 8.015625 -5.96875 L 7.8125 -6 C 7.625 -5.851562 7.378906 -5.726562 7.078125 -5.625 C 6.785156 -5.53125 6.363281 -5.4375 5.8125 -5.34375 C 5.144531 -5.238281 4.664062 -5.050781 4.375 -4.78125 C 4.09375 -4.507812 3.953125 -4.128906 3.953125 -3.640625 C 3.953125 -3.117188 4.101562 -2.722656 4.40625 -2.453125 C 4.71875 -2.179688 5.148438 -2.046875 5.703125 -2.046875 Z M 5.703125 -2.046875 "/></g></g></g></g></svg>